<mxfile host="app.diagrams.net" agent="Mozilla/5.0 (Windows NT 10.0; Win64; x64) AppleWebKit/537.36 (KHTML, like Gecko) Chrome/128.0.0.0 Safari/537.36 OPR/114.0.0.0" version="24.8.6">
  <diagram name="Page-1" id="GakiEjoVpugE-dEvmfYE">
    <mxGraphModel dx="1245" dy="664" grid="1" gridSize="5" guides="1" tooltips="1" connect="0" arrows="1" fold="1" page="1" pageScale="1" pageWidth="827" pageHeight="1169" math="0" shadow="0">
      <root>
        <mxCell id="0" />
        <mxCell id="1" parent="0" />
        <mxCell id="gLLVH6pHYY9osVAJiCNi-6" value="" style="verticalLabelPosition=bottom;shadow=0;dashed=0;align=center;html=1;verticalAlign=top;shape=stencil(tVXLboMwEPwaXyvARZxbmt7aRsqhZxeWYgE2sp1H/76OTaoAiQMukZCQZ/HM7qy9IJzKkrSAooDIFjKF8AuKooIeINdvDZcWCcPArhlpwELrt4+NBp63dWVDUglewZ7mqttEWQmCKhvdWywxPHiFgicNHh+cZpwxrU05k73IWVxzE8pUL4H3lWVutUgDCoSFu0QPXeJ29dOLoeh1jpCHzkPspbSZLxV6CX1O0AmmlYRTjVxrIU6/SFZ9C75l+cX8JNmBI/2WHA/TKHAKN9zsvphw7GzBiaGm7IzhMZxBYQofJWjQK0XjtOACXG6YK7SUH4Nq8P8NSTwMuU9tyeB0zi9twODlTrw0hdvgSYUsQPE37e/SZwFS6Wvg/CJTjvBNhYLW9cJXqd8mn9ky8Nhnttw0wGwbzRiD2v+8AX4B);pointerEvents=1;" parent="1" vertex="1">
          <mxGeometry x="380" y="270" width="60" height="100" as="geometry" />
        </mxCell>
        <mxCell id="gLLVH6pHYY9osVAJiCNi-7" value="" style="group" parent="1" vertex="1" connectable="0">
          <mxGeometry x="330" y="150" width="60" height="100" as="geometry" />
        </mxCell>
        <mxCell id="gLLVH6pHYY9osVAJiCNi-3" value="" style="verticalLabelPosition=bottom;shadow=0;dashed=0;align=center;html=1;verticalAlign=top;shape=stencil(tVXLboMwEPwaXyvARZxbmt7aRsqhZxeWYgE2sp1H/76OTaoAiQMukZCQZ/HM7qy9IJzKkrSAooDIFjKF8AuKooIeINdvDZcWCcPArhlpwELrt4+NBp63dWVDUglewZ7mqttEWQmCKhvdWywxPHiFgicNHh+cZpwxrU05k73IWVxzE8pUL4H3lWVutUgDCoSFu0QPXeJ29dOLoeh1jpCHzkPspbSZLxV6CX1O0AmmlYRTjVxrIU6/SFZ9C75l+cX8JNmBI/2WHA/TKHAKN9zsvphw7GzBiaGm7IzhMZxBYQofJWjQK0XjtOACXG6YK7SUH4Nq8P8NSTwMuU9tyeB0zi9twODlTrw0hdvgSYUsQPE37e/SZwFS6Wvg/CJTjvBNhYLW9cJXqd8mn9ky8Nhnttw0wGwbzRiD2v+8AX4B);pointerEvents=1;" parent="gLLVH6pHYY9osVAJiCNi-7" vertex="1">
          <mxGeometry width="60" height="100" as="geometry" />
        </mxCell>
        <mxCell id="gLLVH6pHYY9osVAJiCNi-4" value="" style="ellipse;whiteSpace=wrap;html=1;" parent="gLLVH6pHYY9osVAJiCNi-7" vertex="1">
          <mxGeometry x="25" y="45" width="10" height="10" as="geometry" />
        </mxCell>
        <mxCell id="gLLVH6pHYY9osVAJiCNi-8" value="" style="group" parent="1" vertex="1" connectable="0">
          <mxGeometry x="440" y="150" width="60" height="100" as="geometry" />
        </mxCell>
        <mxCell id="gLLVH6pHYY9osVAJiCNi-12" style="edgeStyle=orthogonalEdgeStyle;rounded=0;orthogonalLoop=1;jettySize=auto;html=1;exitX=1;exitY=1;exitDx=0;exitDy=0;exitPerimeter=0;endArrow=none;endFill=0;" parent="gLLVH6pHYY9osVAJiCNi-8" source="gLLVH6pHYY9osVAJiCNi-9" edge="1">
          <mxGeometry relative="1" as="geometry">
            <mxPoint y="120" as="targetPoint" />
            <Array as="points">
              <mxPoint x="60" y="110" />
              <mxPoint y="110" />
            </Array>
          </mxGeometry>
        </mxCell>
        <mxCell id="gLLVH6pHYY9osVAJiCNi-9" value="" style="verticalLabelPosition=bottom;shadow=0;dashed=0;align=center;html=1;verticalAlign=top;shape=stencil(tVXLboMwEPwaXyvARZxbmt7aRsqhZxeWYgE2sp1H/76OTaoAiQMukZCQZ/HM7qy9IJzKkrSAooDIFjKF8AuKooIeINdvDZcWCcPArhlpwELrt4+NBp63dWVDUglewZ7mqttEWQmCKhvdWywxPHiFgicNHh+cZpwxrU05k73IWVxzE8pUL4H3lWVutUgDCoSFu0QPXeJ29dOLoeh1jpCHzkPspbSZLxV6CX1O0AmmlYRTjVxrIU6/SFZ9C75l+cX8JNmBI/2WHA/TKHAKN9zsvphw7GzBiaGm7IzhMZxBYQofJWjQK0XjtOACXG6YK7SUH4Nq8P8NSTwMuU9tyeB0zi9twODlTrw0hdvgSYUsQPE37e/SZwFS6Wvg/CJTjvBNhYLW9cJXqd8mn9ky8Nhnttw0wGwbzRiD2v+8AX4B);pointerEvents=1;" parent="gLLVH6pHYY9osVAJiCNi-8" vertex="1">
          <mxGeometry width="60" height="100" as="geometry" />
        </mxCell>
        <mxCell id="gLLVH6pHYY9osVAJiCNi-10" value="" style="ellipse;whiteSpace=wrap;html=1;" parent="gLLVH6pHYY9osVAJiCNi-8" vertex="1">
          <mxGeometry x="25" y="45" width="10" height="10" as="geometry" />
        </mxCell>
        <mxCell id="gLLVH6pHYY9osVAJiCNi-11" style="edgeStyle=orthogonalEdgeStyle;rounded=0;orthogonalLoop=1;jettySize=auto;html=1;exitX=1;exitY=1;exitDx=0;exitDy=0;exitPerimeter=0;entryX=1;entryY=0;entryDx=0;entryDy=0;entryPerimeter=0;strokeColor=default;endArrow=none;endFill=0;" parent="1" source="gLLVH6pHYY9osVAJiCNi-3" target="gLLVH6pHYY9osVAJiCNi-6" edge="1">
          <mxGeometry relative="1" as="geometry">
            <Array as="points">
              <mxPoint x="390" y="260" />
              <mxPoint x="440" y="260" />
            </Array>
          </mxGeometry>
        </mxCell>
        <mxCell id="gLLVH6pHYY9osVAJiCNi-14" style="edgeStyle=orthogonalEdgeStyle;rounded=0;orthogonalLoop=1;jettySize=auto;html=1;exitX=1;exitY=0.5;exitDx=0;exitDy=0;exitPerimeter=0;endArrow=none;endFill=0;entryX=1;entryY=0.818;entryDx=0;entryDy=0;entryPerimeter=0;" parent="1" source="gLLVH6pHYY9osVAJiCNi-13" target="gLLVH6pHYY9osVAJiCNi-13" edge="1">
          <mxGeometry relative="1" as="geometry">
            <mxPoint x="440.1428571428571" y="430" as="targetPoint" />
            <Array as="points">
              <mxPoint x="460" y="390" />
              <mxPoint x="460" y="420" />
            </Array>
          </mxGeometry>
        </mxCell>
        <mxCell id="gLLVH6pHYY9osVAJiCNi-13" value="" style="verticalLabelPosition=bottom;shadow=0;dashed=0;align=center;html=1;verticalAlign=top;shape=stencil(tVXLboMwEPwaXyvARZxbmt7aRsqhZxeWYgE2sp1H/76OTaoAiQMukZCQZ/HM7qy9IJzKkrSAooDIFjKF8AuKooIeINdvDZcWCcPArhlpwELrt4+NBp63dWVDUglewZ7mqttEWQmCKhvdWywxPHiFgicNHh+cZpwxrU05k73IWVxzE8pUL4H3lWVutUgDCoSFu0QPXeJ29dOLoeh1jpCHzkPspbSZLxV6CX1O0AmmlYRTjVxrIU6/SFZ9C75l+cX8JNmBI/2WHA/TKHAKN9zsvphw7GzBiaGm7IzhMZxBYQofJWjQK0XjtOACXG6YK7SUH4Nq8P8NSTwMuU9tyeB0zi9twODlTrw0hdvgSYUsQPE37e/SZwFS6Wvg/CJTjvBNhYLW9cJXqd8mn9ky8Nhnttw0wGwbzRiD2v+8AX4B);pointerEvents=1;" parent="1" vertex="1">
          <mxGeometry x="380" y="340" width="60" height="100" as="geometry" />
        </mxCell>
        <mxCell id="gLLVH6pHYY9osVAJiCNi-15" style="edgeStyle=orthogonalEdgeStyle;rounded=0;orthogonalLoop=1;jettySize=auto;html=1;exitX=1;exitY=0.5;exitDx=0;exitDy=0;exitPerimeter=0;endArrow=none;endFill=0;" parent="1" edge="1">
          <mxGeometry relative="1" as="geometry">
            <mxPoint x="440" y="350" as="targetPoint" />
            <mxPoint x="440" y="320" as="sourcePoint" />
            <Array as="points">
              <mxPoint x="460" y="320" />
              <mxPoint x="460" y="350" />
              <mxPoint x="440" y="350" />
            </Array>
          </mxGeometry>
        </mxCell>
        <mxCell id="gLLVH6pHYY9osVAJiCNi-16" style="edgeStyle=orthogonalEdgeStyle;rounded=0;orthogonalLoop=1;jettySize=auto;html=1;exitX=1;exitY=0.5;exitDx=0;exitDy=0;exitPerimeter=0;endArrow=none;endFill=0;" parent="1" edge="1">
          <mxGeometry relative="1" as="geometry">
            <mxPoint x="500" y="160" as="targetPoint" />
            <mxPoint x="499.9985714285715" y="200" as="sourcePoint" />
            <Array as="points">
              <mxPoint x="520" y="200" />
              <mxPoint x="520" y="170" />
              <mxPoint x="500" y="170" />
            </Array>
          </mxGeometry>
        </mxCell>
        <mxCell id="gLLVH6pHYY9osVAJiCNi-17" style="edgeStyle=orthogonalEdgeStyle;rounded=0;orthogonalLoop=1;jettySize=auto;html=1;exitX=1;exitY=0.5;exitDx=0;exitDy=0;exitPerimeter=0;endArrow=none;endFill=0;entryX=1;entryY=0.077;entryDx=0;entryDy=0;entryPerimeter=0;" parent="1" target="gLLVH6pHYY9osVAJiCNi-3" edge="1">
          <mxGeometry relative="1" as="geometry">
            <mxPoint x="390.1414285714286" y="160" as="targetPoint" />
            <mxPoint x="389.9985714285715" y="200" as="sourcePoint" />
            <Array as="points">
              <mxPoint x="410" y="200" />
              <mxPoint x="410" y="170" />
              <mxPoint x="390" y="170" />
            </Array>
          </mxGeometry>
        </mxCell>
        <mxCell id="gLLVH6pHYY9osVAJiCNi-19" value="A" style="text;html=1;align=center;verticalAlign=middle;resizable=0;points=[];autosize=1;strokeColor=none;fillColor=none;" parent="1" vertex="1">
          <mxGeometry x="360" y="305" width="30" height="30" as="geometry" />
        </mxCell>
        <mxCell id="gLLVH6pHYY9osVAJiCNi-18" value="A" style="text;html=1;align=center;verticalAlign=middle;resizable=0;points=[];autosize=1;strokeColor=none;fillColor=none;" parent="1" vertex="1">
          <mxGeometry x="310" y="185" width="30" height="30" as="geometry" />
        </mxCell>
        <mxCell id="gLLVH6pHYY9osVAJiCNi-20" value="B" style="text;html=1;align=center;verticalAlign=middle;resizable=0;points=[];autosize=1;strokeColor=none;fillColor=none;" parent="1" vertex="1">
          <mxGeometry x="360" y="375" width="30" height="30" as="geometry" />
        </mxCell>
        <mxCell id="gLLVH6pHYY9osVAJiCNi-21" value="B" style="text;html=1;align=center;verticalAlign=middle;resizable=0;points=[];autosize=1;strokeColor=none;fillColor=none;" parent="1" vertex="1">
          <mxGeometry x="420" y="185" width="30" height="30" as="geometry" />
        </mxCell>
        <mxCell id="gLLVH6pHYY9osVAJiCNi-23" value="" style="endArrow=none;html=1;rounded=0;entryX=1;entryY=1;entryDx=0;entryDy=0;entryPerimeter=0;" parent="1" target="gLLVH6pHYY9osVAJiCNi-13" edge="1">
          <mxGeometry width="50" height="50" relative="1" as="geometry">
            <mxPoint x="440" y="440" as="sourcePoint" />
            <mxPoint x="380" y="340" as="targetPoint" />
          </mxGeometry>
        </mxCell>
        <mxCell id="gLLVH6pHYY9osVAJiCNi-27" value="" style="group" parent="1" vertex="1" connectable="0">
          <mxGeometry x="425" y="440" width="30" height="10" as="geometry" />
        </mxCell>
        <mxCell id="gLLVH6pHYY9osVAJiCNi-24" value="" style="endArrow=none;html=1;rounded=0;" parent="gLLVH6pHYY9osVAJiCNi-27" edge="1">
          <mxGeometry width="50" height="50" relative="1" as="geometry">
            <mxPoint as="sourcePoint" />
            <mxPoint x="30" as="targetPoint" />
          </mxGeometry>
        </mxCell>
        <mxCell id="gLLVH6pHYY9osVAJiCNi-25" value="" style="endArrow=none;html=1;rounded=0;" parent="gLLVH6pHYY9osVAJiCNi-27" edge="1">
          <mxGeometry width="50" height="50" relative="1" as="geometry">
            <mxPoint x="5" y="5" as="sourcePoint" />
            <mxPoint x="25" y="5" as="targetPoint" />
          </mxGeometry>
        </mxCell>
        <mxCell id="gLLVH6pHYY9osVAJiCNi-26" value="" style="endArrow=none;html=1;rounded=0;" parent="gLLVH6pHYY9osVAJiCNi-27" edge="1">
          <mxGeometry width="50" height="50" relative="1" as="geometry">
            <mxPoint x="10" y="10" as="sourcePoint" />
            <mxPoint x="20" y="10" as="targetPoint" />
          </mxGeometry>
        </mxCell>
        <mxCell id="gLLVH6pHYY9osVAJiCNi-28" value="" style="endArrow=none;html=1;rounded=0;entryX=1.002;entryY=0.005;entryDx=0;entryDy=0;entryPerimeter=0;exitX=0.999;exitY=0.005;exitDx=0;exitDy=0;exitPerimeter=0;" parent="1" source="gLLVH6pHYY9osVAJiCNi-3" target="gLLVH6pHYY9osVAJiCNi-9" edge="1">
          <mxGeometry width="50" height="50" relative="1" as="geometry">
            <mxPoint x="390" y="155" as="sourcePoint" />
            <mxPoint x="355" y="190" as="targetPoint" />
          </mxGeometry>
        </mxCell>
        <mxCell id="gLLVH6pHYY9osVAJiCNi-29" value="" style="endArrow=none;html=1;rounded=0;exitX=0;exitY=0.005;exitDx=0;exitDy=0;exitPerimeter=0;" parent="1" source="gLLVH6pHYY9osVAJiCNi-9" edge="1">
          <mxGeometry width="50" height="50" relative="1" as="geometry">
            <mxPoint x="440" y="155" as="sourcePoint" />
            <mxPoint x="439.83" y="125" as="targetPoint" />
          </mxGeometry>
        </mxCell>
        <mxCell id="gLLVH6pHYY9osVAJiCNi-30" value="" style="endArrow=none;html=1;rounded=0;" parent="1" edge="1">
          <mxGeometry width="50" height="50" relative="1" as="geometry">
            <mxPoint x="430" y="135" as="sourcePoint" />
            <mxPoint x="450" y="115" as="targetPoint" />
          </mxGeometry>
        </mxCell>
        <mxCell id="gLLVH6pHYY9osVAJiCNi-31" value="" style="verticalLabelPosition=bottom;shadow=0;dashed=0;align=center;html=1;verticalAlign=top;shape=stencil(tVXLboMwEPwaXyvARZxbmt7aRsqhZxeWYgE2sp1H/76OTaoAiQMukZCQZ/HM7qy9IJzKkrSAooDIFjKF8AuKooIeINdvDZcWCcPArhlpwELrt4+NBp63dWVDUglewZ7mqttEWQmCKhvdWywxPHiFgicNHh+cZpwxrU05k73IWVxzE8pUL4H3lWVutUgDCoSFu0QPXeJ29dOLoeh1jpCHzkPspbSZLxV6CX1O0AmmlYRTjVxrIU6/SFZ9C75l+cX8JNmBI/2WHA/TKHAKN9zsvphw7GzBiaGm7IzhMZxBYQofJWjQK0XjtOACXG6YK7SUH4Nq8P8NSTwMuU9tyeB0zi9twODlTrw0hdvgSYUsQPE37e/SZwFS6Wvg/CJTjvBNhYLW9cJXqd8mn9ky8Nhnttw0wGwbzRiD2v+8AX4B);pointerEvents=1;" parent="1" vertex="1">
          <mxGeometry x="155" y="125" width="60" height="100" as="geometry" />
        </mxCell>
        <mxCell id="gLLVH6pHYY9osVAJiCNi-40" style="edgeStyle=orthogonalEdgeStyle;rounded=0;orthogonalLoop=1;jettySize=auto;html=1;exitX=1;exitY=0.5;exitDx=0;exitDy=0;exitPerimeter=0;endArrow=none;endFill=0;entryX=0.998;entryY=0.698;entryDx=0;entryDy=0;entryPerimeter=0;" parent="1" source="gLLVH6pHYY9osVAJiCNi-41" target="gLLVH6pHYY9osVAJiCNi-31" edge="1">
          <mxGeometry relative="1" as="geometry">
            <mxPoint x="215.1428571428571" y="285" as="targetPoint" />
            <Array as="points">
              <mxPoint x="235" y="245" />
              <mxPoint x="235" y="215" />
              <mxPoint x="215" y="215" />
            </Array>
          </mxGeometry>
        </mxCell>
        <mxCell id="gLLVH6pHYY9osVAJiCNi-41" value="" style="verticalLabelPosition=bottom;shadow=0;dashed=0;align=center;html=1;verticalAlign=top;shape=stencil(tVXLboMwEPwaXyvARZxbmt7aRsqhZxeWYgE2sp1H/76OTaoAiQMukZCQZ/HM7qy9IJzKkrSAooDIFjKF8AuKooIeINdvDZcWCcPArhlpwELrt4+NBp63dWVDUglewZ7mqttEWQmCKhvdWywxPHiFgicNHh+cZpwxrU05k73IWVxzE8pUL4H3lWVutUgDCoSFu0QPXeJ29dOLoeh1jpCHzkPspbSZLxV6CX1O0AmmlYRTjVxrIU6/SFZ9C75l+cX8JNmBI/2WHA/TKHAKN9zsvphw7GzBiaGm7IzhMZxBYQofJWjQK0XjtOACXG6YK7SUH4Nq8P8NSTwMuU9tyeB0zi9twODlTrw0hdvgSYUsQPE37e/SZwFS6Wvg/CJTjvBNhYLW9cJXqd8mn9ky8Nhnttw0wGwbzRiD2v+8AX4B);pointerEvents=1;" parent="1" vertex="1">
          <mxGeometry x="155" y="195" width="60" height="100" as="geometry" />
        </mxCell>
        <mxCell id="gLLVH6pHYY9osVAJiCNi-42" style="edgeStyle=orthogonalEdgeStyle;rounded=0;orthogonalLoop=1;jettySize=auto;html=1;exitX=1;exitY=0.5;exitDx=0;exitDy=0;exitPerimeter=0;endArrow=none;endFill=0;entryX=1.013;entryY=0.016;entryDx=0;entryDy=0;entryPerimeter=0;" parent="1" edge="1" target="gLLVH6pHYY9osVAJiCNi-31">
          <mxGeometry relative="1" as="geometry">
            <mxPoint x="215" y="205" as="targetPoint" />
            <mxPoint x="215" y="175" as="sourcePoint" />
            <Array as="points">
              <mxPoint x="235" y="175" />
              <mxPoint x="235" y="145" />
              <mxPoint x="215" y="145" />
              <mxPoint x="215" y="129" />
            </Array>
          </mxGeometry>
        </mxCell>
        <mxCell id="gLLVH6pHYY9osVAJiCNi-43" style="edgeStyle=orthogonalEdgeStyle;rounded=0;orthogonalLoop=1;jettySize=auto;html=1;exitX=1;exitY=0.5;exitDx=0;exitDy=0;exitPerimeter=0;endArrow=none;endFill=0;" parent="1" edge="1">
          <mxGeometry relative="1" as="geometry">
            <mxPoint x="275" y="420.941162109375" as="targetPoint" />
            <mxPoint x="274.9985714285715" y="365" as="sourcePoint" />
            <Array as="points">
              <mxPoint x="295" y="365" />
              <mxPoint x="295" y="395" />
              <mxPoint x="275" y="395" />
            </Array>
          </mxGeometry>
        </mxCell>
        <mxCell id="gLLVH6pHYY9osVAJiCNi-44" style="edgeStyle=orthogonalEdgeStyle;rounded=0;orthogonalLoop=1;jettySize=auto;html=1;exitX=1;exitY=0.5;exitDx=0;exitDy=0;exitPerimeter=0;endArrow=none;endFill=0;" parent="1" edge="1">
          <mxGeometry relative="1" as="geometry">
            <mxPoint x="165" y="425" as="targetPoint" />
            <mxPoint x="164.9985714285715" y="365" as="sourcePoint" />
            <Array as="points">
              <mxPoint x="185" y="365" />
              <mxPoint x="185" y="395" />
              <mxPoint x="165" y="395" />
            </Array>
          </mxGeometry>
        </mxCell>
        <mxCell id="gLLVH6pHYY9osVAJiCNi-45" value="A" style="text;html=1;align=center;verticalAlign=middle;resizable=0;points=[];autosize=1;strokeColor=none;fillColor=none;" parent="1" vertex="1">
          <mxGeometry x="135" y="160" width="30" height="30" as="geometry" />
        </mxCell>
        <mxCell id="gLLVH6pHYY9osVAJiCNi-46" value="B" style="text;html=1;align=center;verticalAlign=middle;resizable=0;points=[];autosize=1;strokeColor=none;fillColor=none;" parent="1" vertex="1">
          <mxGeometry x="135" y="230" width="30" height="30" as="geometry" />
        </mxCell>
        <mxCell id="gLLVH6pHYY9osVAJiCNi-47" value="B" style="text;html=1;align=center;verticalAlign=middle;resizable=0;points=[];autosize=1;strokeColor=none;fillColor=none;" parent="1" vertex="1">
          <mxGeometry x="195" y="350" width="30" height="30" as="geometry" />
        </mxCell>
        <mxCell id="gLLVH6pHYY9osVAJiCNi-48" value="" style="endArrow=none;html=1;rounded=0;entryX=1;entryY=1;entryDx=0;entryDy=0;entryPerimeter=0;" parent="1" target="gLLVH6pHYY9osVAJiCNi-41" edge="1">
          <mxGeometry width="50" height="50" relative="1" as="geometry">
            <mxPoint x="215" y="295" as="sourcePoint" />
            <mxPoint x="155" y="195" as="targetPoint" />
          </mxGeometry>
        </mxCell>
        <mxCell id="gLLVH6pHYY9osVAJiCNi-49" value="" style="group" parent="1" vertex="1" connectable="0">
          <mxGeometry x="200" y="440" width="30" height="10" as="geometry" />
        </mxCell>
        <mxCell id="gLLVH6pHYY9osVAJiCNi-50" value="" style="endArrow=none;html=1;rounded=0;" parent="gLLVH6pHYY9osVAJiCNi-49" edge="1">
          <mxGeometry width="50" height="50" relative="1" as="geometry">
            <mxPoint as="sourcePoint" />
            <mxPoint x="30" as="targetPoint" />
          </mxGeometry>
        </mxCell>
        <mxCell id="gLLVH6pHYY9osVAJiCNi-51" value="" style="endArrow=none;html=1;rounded=0;" parent="gLLVH6pHYY9osVAJiCNi-49" edge="1">
          <mxGeometry width="50" height="50" relative="1" as="geometry">
            <mxPoint x="5" y="5" as="sourcePoint" />
            <mxPoint x="25" y="5" as="targetPoint" />
          </mxGeometry>
        </mxCell>
        <mxCell id="gLLVH6pHYY9osVAJiCNi-52" value="" style="endArrow=none;html=1;rounded=0;" parent="gLLVH6pHYY9osVAJiCNi-49" edge="1">
          <mxGeometry width="50" height="50" relative="1" as="geometry">
            <mxPoint x="10" y="10" as="sourcePoint" />
            <mxPoint x="20" y="10" as="targetPoint" />
          </mxGeometry>
        </mxCell>
        <mxCell id="gLLVH6pHYY9osVAJiCNi-53" value="" style="endArrow=none;html=1;rounded=0;entryX=1.002;entryY=0.005;entryDx=0;entryDy=0;entryPerimeter=0;exitX=0.999;exitY=0.005;exitDx=0;exitDy=0;exitPerimeter=0;" parent="1" source="gLLVH6pHYY9osVAJiCNi-33" target="gLLVH6pHYY9osVAJiCNi-37" edge="1">
          <mxGeometry width="50" height="50" relative="1" as="geometry">
            <mxPoint x="165" y="320" as="sourcePoint" />
            <mxPoint x="130" y="355" as="targetPoint" />
          </mxGeometry>
        </mxCell>
        <mxCell id="gLLVH6pHYY9osVAJiCNi-54" value="" style="endArrow=none;html=1;rounded=0;exitX=0;exitY=0.005;exitDx=0;exitDy=0;exitPerimeter=0;" parent="1" source="gLLVH6pHYY9osVAJiCNi-37" edge="1">
          <mxGeometry width="50" height="50" relative="1" as="geometry">
            <mxPoint x="215" y="320" as="sourcePoint" />
            <mxPoint x="215" y="290" as="targetPoint" />
          </mxGeometry>
        </mxCell>
        <mxCell id="gLLVH6pHYY9osVAJiCNi-57" style="edgeStyle=orthogonalEdgeStyle;rounded=0;orthogonalLoop=1;jettySize=auto;html=1;exitX=1;exitY=1;exitDx=0;exitDy=0;exitPerimeter=0;endArrow=none;endFill=0;entryX=1;entryY=0.975;entryDx=0;entryDy=0;entryPerimeter=0;" parent="1" target="gLLVH6pHYY9osVAJiCNi-33" edge="1">
          <mxGeometry relative="1" as="geometry">
            <mxPoint x="165" y="415" as="targetPoint" />
            <Array as="points">
              <mxPoint x="215" y="425" />
              <mxPoint x="165" y="425" />
            </Array>
            <mxPoint x="214.98" y="438" as="sourcePoint" />
          </mxGeometry>
        </mxCell>
        <mxCell id="gLLVH6pHYY9osVAJiCNi-58" value="A" style="text;html=1;align=center;verticalAlign=middle;resizable=0;points=[];autosize=1;strokeColor=none;fillColor=none;" parent="1" vertex="1">
          <mxGeometry x="85" y="350" width="30" height="30" as="geometry" />
        </mxCell>
        <mxCell id="gLLVH6pHYY9osVAJiCNi-59" value="" style="endArrow=none;html=1;rounded=0;" parent="1" edge="1">
          <mxGeometry width="50" height="50" relative="1" as="geometry">
            <mxPoint x="205" y="135" as="sourcePoint" />
            <mxPoint x="225" y="115" as="targetPoint" />
          </mxGeometry>
        </mxCell>
        <mxCell id="gLLVH6pHYY9osVAJiCNi-60" value="" style="endArrow=none;html=1;rounded=0;exitX=1;exitY=0.075;exitDx=0;exitDy=0;exitPerimeter=0;" parent="1" source="gLLVH6pHYY9osVAJiCNi-31" edge="1">
          <mxGeometry width="50" height="50" relative="1" as="geometry">
            <mxPoint x="220" y="140" as="sourcePoint" />
            <mxPoint x="215" y="125" as="targetPoint" />
          </mxGeometry>
        </mxCell>
        <mxCell id="gLLVH6pHYY9osVAJiCNi-61" value="" style="endArrow=none;html=1;rounded=0;" parent="1" edge="1">
          <mxGeometry width="50" height="50" relative="1" as="geometry">
            <mxPoint x="215" y="295" as="sourcePoint" />
            <mxPoint x="250" y="295" as="targetPoint" />
          </mxGeometry>
        </mxCell>
        <mxCell id="gLLVH6pHYY9osVAJiCNi-62" value="Y" style="text;html=1;align=center;verticalAlign=middle;resizable=0;points=[];autosize=1;strokeColor=none;fillColor=none;" parent="1" vertex="1">
          <mxGeometry x="240" y="280" width="30" height="30" as="geometry" />
        </mxCell>
        <mxCell id="gLLVH6pHYY9osVAJiCNi-66" value="" style="endArrow=none;html=1;rounded=0;" parent="1" edge="1">
          <mxGeometry width="50" height="50" relative="1" as="geometry">
            <mxPoint x="495" y="260" as="sourcePoint" />
            <mxPoint x="530" y="260" as="targetPoint" />
          </mxGeometry>
        </mxCell>
        <mxCell id="gLLVH6pHYY9osVAJiCNi-67" value="Y" style="text;html=1;align=center;verticalAlign=middle;resizable=0;points=[];autosize=1;strokeColor=none;fillColor=none;" parent="1" vertex="1">
          <mxGeometry x="520" y="245" width="30" height="30" as="geometry" />
        </mxCell>
        <mxCell id="gLLVH6pHYY9osVAJiCNi-33" value="" style="verticalLabelPosition=bottom;shadow=0;dashed=0;align=center;html=1;verticalAlign=top;shape=stencil(tVXLboMwEPwaXyvARZxbmt7aRsqhZxeWYgE2sp1H/76OTaoAiQMukZCQZ/HM7qy9IJzKkrSAooDIFjKF8AuKooIeINdvDZcWCcPArhlpwELrt4+NBp63dWVDUglewZ7mqttEWQmCKhvdWywxPHiFgicNHh+cZpwxrU05k73IWVxzE8pUL4H3lWVutUgDCoSFu0QPXeJ29dOLoeh1jpCHzkPspbSZLxV6CX1O0AmmlYRTjVxrIU6/SFZ9C75l+cX8JNmBI/2WHA/TKHAKN9zsvphw7GzBiaGm7IzhMZxBYQofJWjQK0XjtOACXG6YK7SUH4Nq8P8NSTwMuU9tyeB0zi9twODlTrw0hdvgSYUsQPE37e/SZwFS6Wvg/CJTjvBNhYLW9cJXqd8mn9ky8Nhnttw0wGwbzRiD2v+8AX4B);pointerEvents=1;" parent="1" vertex="1">
          <mxGeometry x="105" y="315" width="60" height="100" as="geometry" />
        </mxCell>
        <mxCell id="gLLVH6pHYY9osVAJiCNi-34" value="" style="ellipse;whiteSpace=wrap;html=1;" parent="1" vertex="1">
          <mxGeometry x="180" y="240" width="10" height="10" as="geometry" />
        </mxCell>
        <mxCell id="gLLVH6pHYY9osVAJiCNi-36" style="edgeStyle=orthogonalEdgeStyle;rounded=0;orthogonalLoop=1;jettySize=auto;html=1;exitX=1;exitY=1;exitDx=0;exitDy=0;exitPerimeter=0;endArrow=none;endFill=0;" parent="1" source="gLLVH6pHYY9osVAJiCNi-37" edge="1">
          <mxGeometry relative="1" as="geometry">
            <mxPoint x="215" y="435" as="targetPoint" />
            <Array as="points">
              <mxPoint x="275" y="425" />
              <mxPoint x="215" y="425" />
            </Array>
          </mxGeometry>
        </mxCell>
        <mxCell id="gLLVH6pHYY9osVAJiCNi-37" value="" style="verticalLabelPosition=bottom;shadow=0;dashed=0;align=center;html=1;verticalAlign=top;shape=stencil(tVXLboMwEPwaXyvARZxbmt7aRsqhZxeWYgE2sp1H/76OTaoAiQMukZCQZ/HM7qy9IJzKkrSAooDIFjKF8AuKooIeINdvDZcWCcPArhlpwELrt4+NBp63dWVDUglewZ7mqttEWQmCKhvdWywxPHiFgicNHh+cZpwxrU05k73IWVxzE8pUL4H3lWVutUgDCoSFu0QPXeJ29dOLoeh1jpCHzkPspbSZLxV6CX1O0AmmlYRTjVxrIU6/SFZ9C75l+cX8JNmBI/2WHA/TKHAKN9zsvphw7GzBiaGm7IzhMZxBYQofJWjQK0XjtOACXG6YK7SUH4Nq8P8NSTwMuU9tyeB0zi9twODlTrw0hdvgSYUsQPE37e/SZwFS6Wvg/CJTjvBNhYLW9cJXqd8mn9ky8Nhnttw0wGwbzRiD2v+8AX4B);pointerEvents=1;" parent="1" vertex="1">
          <mxGeometry x="215" y="315" width="60" height="100" as="geometry" />
        </mxCell>
        <mxCell id="gLLVH6pHYY9osVAJiCNi-38" value="" style="ellipse;whiteSpace=wrap;html=1;" parent="1" vertex="1">
          <mxGeometry x="180" y="170" width="10" height="10" as="geometry" />
        </mxCell>
        <mxCell id="gLLVH6pHYY9osVAJiCNi-68" value="" style="group" parent="1" vertex="1" connectable="0">
          <mxGeometry x="615" y="150" width="60" height="100" as="geometry" />
        </mxCell>
        <mxCell id="gLLVH6pHYY9osVAJiCNi-69" value="" style="verticalLabelPosition=bottom;shadow=0;dashed=0;align=center;html=1;verticalAlign=top;shape=stencil(tVXLboMwEPwaXyvARZxbmt7aRsqhZxeWYgE2sp1H/76OTaoAiQMukZCQZ/HM7qy9IJzKkrSAooDIFjKF8AuKooIeINdvDZcWCcPArhlpwELrt4+NBp63dWVDUglewZ7mqttEWQmCKhvdWywxPHiFgicNHh+cZpwxrU05k73IWVxzE8pUL4H3lWVutUgDCoSFu0QPXeJ29dOLoeh1jpCHzkPspbSZLxV6CX1O0AmmlYRTjVxrIU6/SFZ9C75l+cX8JNmBI/2WHA/TKHAKN9zsvphw7GzBiaGm7IzhMZxBYQofJWjQK0XjtOACXG6YK7SUH4Nq8P8NSTwMuU9tyeB0zi9twODlTrw0hdvgSYUsQPE37e/SZwFS6Wvg/CJTjvBNhYLW9cJXqd8mn9ky8Nhnttw0wGwbzRiD2v+8AX4B);pointerEvents=1;" parent="gLLVH6pHYY9osVAJiCNi-68" vertex="1">
          <mxGeometry width="60" height="100" as="geometry" />
        </mxCell>
        <mxCell id="gLLVH6pHYY9osVAJiCNi-70" value="" style="ellipse;whiteSpace=wrap;html=1;" parent="gLLVH6pHYY9osVAJiCNi-68" vertex="1">
          <mxGeometry x="25" y="45" width="10" height="10" as="geometry" />
        </mxCell>
        <mxCell id="gLLVH6pHYY9osVAJiCNi-71" style="edgeStyle=orthogonalEdgeStyle;rounded=0;orthogonalLoop=1;jettySize=auto;html=1;exitX=1;exitY=0.5;exitDx=0;exitDy=0;exitPerimeter=0;endArrow=none;endFill=0;entryX=1;entryY=0.077;entryDx=0;entryDy=0;entryPerimeter=0;" parent="1" target="gLLVH6pHYY9osVAJiCNi-69" edge="1">
          <mxGeometry relative="1" as="geometry">
            <mxPoint x="675.1414285714286" y="160" as="targetPoint" />
            <mxPoint x="674.9985714285715" y="200" as="sourcePoint" />
            <Array as="points">
              <mxPoint x="695" y="200" />
              <mxPoint x="695" y="170" />
              <mxPoint x="675" y="170" />
            </Array>
          </mxGeometry>
        </mxCell>
        <mxCell id="gLLVH6pHYY9osVAJiCNi-72" value="" style="endArrow=none;html=1;rounded=0;exitX=0;exitY=0.005;exitDx=0;exitDy=0;exitPerimeter=0;" parent="1" edge="1">
          <mxGeometry width="50" height="50" relative="1" as="geometry">
            <mxPoint x="675" y="153" as="sourcePoint" />
            <mxPoint x="674.8299999999999" y="125" as="targetPoint" />
          </mxGeometry>
        </mxCell>
        <mxCell id="gLLVH6pHYY9osVAJiCNi-73" value="" style="endArrow=none;html=1;rounded=0;" parent="1" edge="1">
          <mxGeometry width="50" height="50" relative="1" as="geometry">
            <mxPoint x="665" y="135" as="sourcePoint" />
            <mxPoint x="685" y="115" as="targetPoint" />
          </mxGeometry>
        </mxCell>
        <mxCell id="gLLVH6pHYY9osVAJiCNi-74" style="edgeStyle=orthogonalEdgeStyle;rounded=0;orthogonalLoop=1;jettySize=auto;html=1;exitX=1;exitY=0.5;exitDx=0;exitDy=0;exitPerimeter=0;endArrow=none;endFill=0;entryX=1;entryY=0.818;entryDx=0;entryDy=0;entryPerimeter=0;" parent="1" source="gLLVH6pHYY9osVAJiCNi-75" target="gLLVH6pHYY9osVAJiCNi-75" edge="1">
          <mxGeometry relative="1" as="geometry">
            <mxPoint x="675.1428571428571" y="430" as="targetPoint" />
            <Array as="points">
              <mxPoint x="695" y="390" />
              <mxPoint x="695" y="420" />
            </Array>
          </mxGeometry>
        </mxCell>
        <mxCell id="gLLVH6pHYY9osVAJiCNi-75" value="" style="verticalLabelPosition=bottom;shadow=0;dashed=0;align=center;html=1;verticalAlign=top;shape=stencil(tVXLboMwEPwaXyvARZxbmt7aRsqhZxeWYgE2sp1H/76OTaoAiQMukZCQZ/HM7qy9IJzKkrSAooDIFjKF8AuKooIeINdvDZcWCcPArhlpwELrt4+NBp63dWVDUglewZ7mqttEWQmCKhvdWywxPHiFgicNHh+cZpwxrU05k73IWVxzE8pUL4H3lWVutUgDCoSFu0QPXeJ29dOLoeh1jpCHzkPspbSZLxV6CX1O0AmmlYRTjVxrIU6/SFZ9C75l+cX8JNmBI/2WHA/TKHAKN9zsvphw7GzBiaGm7IzhMZxBYQofJWjQK0XjtOACXG6YK7SUH4Nq8P8NSTwMuU9tyeB0zi9twODlTrw0hdvgSYUsQPE37e/SZwFS6Wvg/CJTjvBNhYLW9cJXqd8mn9ky8Nhnttw0wGwbzRiD2v+8AX4B);pointerEvents=1;" parent="1" vertex="1">
          <mxGeometry x="615" y="340" width="60" height="100" as="geometry" />
        </mxCell>
        <mxCell id="gLLVH6pHYY9osVAJiCNi-77" value="" style="endArrow=none;html=1;rounded=0;entryX=1;entryY=1;entryDx=0;entryDy=0;entryPerimeter=0;" parent="1" target="gLLVH6pHYY9osVAJiCNi-75" edge="1">
          <mxGeometry width="50" height="50" relative="1" as="geometry">
            <mxPoint x="675" y="440" as="sourcePoint" />
            <mxPoint x="615" y="340" as="targetPoint" />
          </mxGeometry>
        </mxCell>
        <mxCell id="gLLVH6pHYY9osVAJiCNi-78" value="" style="group" parent="1" vertex="1" connectable="0">
          <mxGeometry x="660" y="440" width="30" height="10" as="geometry" />
        </mxCell>
        <mxCell id="gLLVH6pHYY9osVAJiCNi-79" value="" style="endArrow=none;html=1;rounded=0;" parent="gLLVH6pHYY9osVAJiCNi-78" edge="1">
          <mxGeometry width="50" height="50" relative="1" as="geometry">
            <mxPoint as="sourcePoint" />
            <mxPoint x="30" as="targetPoint" />
          </mxGeometry>
        </mxCell>
        <mxCell id="gLLVH6pHYY9osVAJiCNi-80" value="" style="endArrow=none;html=1;rounded=0;" parent="gLLVH6pHYY9osVAJiCNi-78" edge="1">
          <mxGeometry width="50" height="50" relative="1" as="geometry">
            <mxPoint x="5" y="5" as="sourcePoint" />
            <mxPoint x="25" y="5" as="targetPoint" />
          </mxGeometry>
        </mxCell>
        <mxCell id="gLLVH6pHYY9osVAJiCNi-81" value="" style="endArrow=none;html=1;rounded=0;" parent="gLLVH6pHYY9osVAJiCNi-78" edge="1">
          <mxGeometry width="50" height="50" relative="1" as="geometry">
            <mxPoint x="10" y="10" as="sourcePoint" />
            <mxPoint x="20" y="10" as="targetPoint" />
          </mxGeometry>
        </mxCell>
        <mxCell id="gLLVH6pHYY9osVAJiCNi-82" value="" style="endArrow=none;html=1;rounded=0;entryX=0.008;entryY=0.5;entryDx=0;entryDy=0;entryPerimeter=0;exitX=0.008;exitY=0.5;exitDx=0;exitDy=0;exitPerimeter=0;" parent="1" source="gLLVH6pHYY9osVAJiCNi-75" target="gLLVH6pHYY9osVAJiCNi-69" edge="1">
          <mxGeometry width="50" height="50" relative="1" as="geometry">
            <mxPoint x="565" y="350" as="sourcePoint" />
            <mxPoint x="615" y="300" as="targetPoint" />
          </mxGeometry>
        </mxCell>
        <mxCell id="gLLVH6pHYY9osVAJiCNi-84" value="" style="endArrow=none;html=1;rounded=0;" parent="1" edge="1">
          <mxGeometry width="50" height="50" relative="1" as="geometry">
            <mxPoint x="575" y="295" as="sourcePoint" />
            <mxPoint x="615" y="295" as="targetPoint" />
          </mxGeometry>
        </mxCell>
        <mxCell id="gLLVH6pHYY9osVAJiCNi-85" value="" style="endArrow=none;html=1;rounded=0;" parent="1" edge="1">
          <mxGeometry width="50" height="50" relative="1" as="geometry">
            <mxPoint x="675" y="350" as="sourcePoint" />
            <mxPoint x="675" y="245" as="targetPoint" />
          </mxGeometry>
        </mxCell>
        <mxCell id="gLLVH6pHYY9osVAJiCNi-86" value="" style="endArrow=none;html=1;rounded=0;" parent="1" edge="1">
          <mxGeometry width="50" height="50" relative="1" as="geometry">
            <mxPoint x="675" y="294.79" as="sourcePoint" />
            <mxPoint x="715" y="294.79" as="targetPoint" />
          </mxGeometry>
        </mxCell>
        <mxCell id="gLLVH6pHYY9osVAJiCNi-87" value="Y" style="text;html=1;align=center;verticalAlign=middle;resizable=0;points=[];autosize=1;strokeColor=none;fillColor=none;" parent="1" vertex="1">
          <mxGeometry x="705" y="280" width="30" height="30" as="geometry" />
        </mxCell>
        <mxCell id="gLLVH6pHYY9osVAJiCNi-88" value="" style="endArrow=none;html=1;rounded=0;entryX=0.721;entryY=0.002;entryDx=0;entryDy=0;entryPerimeter=0;exitX=0.28;exitY=0;exitDx=0;exitDy=0;exitPerimeter=0;" parent="1" edge="1">
          <mxGeometry width="50" height="50" relative="1" as="geometry">
            <mxPoint x="714" y="288" as="sourcePoint" />
            <mxPoint x="726" y="288" as="targetPoint" />
          </mxGeometry>
        </mxCell>
        <mxCell id="gLLVH6pHYY9osVAJiCNi-89" value="Y" style="text;html=1;align=center;verticalAlign=middle;resizable=0;points=[];autosize=1;strokeColor=none;fillColor=none;" parent="1" vertex="1">
          <mxGeometry x="555" y="280" width="30" height="30" as="geometry" />
        </mxCell>
      </root>
    </mxGraphModel>
  </diagram>
</mxfile>
